<svg width="12" height="13" viewBox="0 0 12 13" fill="none" xmlns="http://www.w3.org/2000/svg">
<path d="M6 0.50531C4.81331 0.50531 3.65328 0.857204 2.66658 1.51649C1.67989 2.17578 0.910851 3.11285 0.456725 4.20921C0.00259973 5.30556 -0.11622 6.51196 0.115291 7.67585C0.346802 8.83974 0.918247 9.90883 1.75736 10.7479C2.59648 11.5871 3.66557 12.1585 4.82946 12.39C5.99335 12.6215 7.19974 12.5027 8.2961 12.0486C9.39246 11.5945 10.3295 10.8254 10.9888 9.83873C11.6481 8.85204 12 7.692 12 6.50531C12 4.91401 11.3679 3.38789 10.2426 2.26267C9.11742 1.13745 7.5913 0.50531 6 0.50531ZM8.18182 7.05076H6C5.85534 7.05076 5.7166 6.9933 5.61431 6.891C5.51201 6.78871 5.45455 6.64997 5.45455 6.50531V3.23258C5.45455 3.08792 5.51201 2.94918 5.61431 2.84689C5.7166 2.7446 5.85534 2.68713 6 2.68713C6.14466 2.68713 6.2834 2.7446 6.38569 2.84689C6.48799 2.94918 6.54545 3.08792 6.54545 3.23258V5.95985H8.18182C8.32648 5.95985 8.46522 6.01732 8.56751 6.11961C8.66981 6.22191 8.72727 6.36065 8.72727 6.50531C8.72727 6.64997 8.66981 6.78871 8.56751 6.891C8.46522 6.9933 8.32648 7.05076 8.18182 7.05076Z" fill="#C04093"/>
</svg>
