<svg width="10" height="11" viewBox="0 0 10 11" fill="none" xmlns="http://www.w3.org/2000/svg">
<path d="M5 0.5C2.23828 0.5 0 2.73828 0 5.5C0 8.26172 2.23828 10.5 5 10.5C7.76172 10.5 10 8.26172 10 5.5C10 2.73828 7.76172 0.5 5 0.5ZM7.26172 4.63672L4.76172 7.13672C4.6543 7.24414 4.51562 7.29688 4.375 7.29688C4.23438 7.29688 4.09492 7.24377 3.98809 7.13695L2.73809 5.88695C2.525 5.67328 2.525 5.3266 2.73809 5.11293C2.95176 4.89926 3.29844 4.89926 3.51211 5.11293L4.375 5.97656L6.48828 3.86328C6.70195 3.64961 7.04863 3.64961 7.2623 3.86328C7.47461 4.07617 7.47461 4.42383 7.26172 4.63672Z" fill="#1FA79D"/>
</svg>
